<!-- <svg xmlns="http://www.w3.org/2000/svg" viewBox="0 0 68 67">
  <path fill-rule="evenodd" fill-opacity=".251" fill="#5E6870" d="M34.156 67C15.747 67 .823 52.076.823 33.667.823 15.257 15.747.333 34.156.333c18.41 0 33.334 14.924 33.334 33.334C67.49 52.076 52.566 67 34.156 67zm0-64.583c-17.259 0-31.25 13.991-31.25 31.25s13.991 31.25 31.25 31.25 31.25-13.991 31.25-31.25-13.991-31.25-31.25-31.25z"/>
  <path fill-rule="evenodd" fill-opacity=".502" fill="#5E6870" d="M28.753 43.468h-8.571a.714.714 0 0 1-.715-.712v-1.424c0-.394.32-.713.715-.713h8.571c.394 0 .714.319.714.713v1.424c0 .393-.32.712-.714.712zm-13.572-9.257c0-.394.32-.712.715-.712h11.428c.395 0 .714.318.714.712v1.424a.712.712 0 0 1-.714.712H15.896a.713.713 0 0 1-.715-.712v-1.424zM26.61 27.09v1.424c0 .393-.32.712-.714.712H11.61a.713.713 0 0 1-.714-.712V27.09c0-.393.32-.712.714-.712h14.286c.394 0 .714.319.714.712zm31.736 19.226H36.61a1.426 1.426 0 0 1-1.429-1.424V28.514l15.714 8.545 9.795-5.326c.124 1.048.205 2.109.205 3.19 0 4.076-.93 7.927-2.549 11.393zm1.747-17.819l-9.198 5.002-15.714-8.545c0-.786.64-1.424 1.429-1.424h21.736a26.752 26.752 0 0 1 1.747 4.967z"/>
</svg> -->

<svg 
 xmlns="http://www.w3.org/2000/svg"
 xmlns:xlink="http://www.w3.org/1999/xlink"
 width="68px" height="67px">
<path fill-rule="evenodd"  fill-opacity="0.251" fill="rgb(94, 104, 112)"
 d="M34.156,67.000 C15.741,67.000 0.813,52.078 0.813,33.672 C0.813,15.265 15.741,0.344 34.156,0.344 C52.571,0.344 67.500,15.265 67.500,33.672 C67.500,52.078 52.571,67.000 34.156,67.000 ZM34.156,2.406 C16.897,2.406 2.906,16.397 2.906,33.656 C2.906,50.915 16.897,64.906 34.156,64.906 C51.415,64.906 65.406,50.915 65.406,33.656 C65.406,16.397 51.415,2.406 34.156,2.406 Z"/>
<path fill-rule="evenodd"  fill-opacity="0.502" fill="rgb(94, 104, 112)"
 d="M28.753,43.468 L20.182,43.468 C19.787,43.468 19.467,43.149 19.467,42.756 L19.467,41.332 C19.467,40.938 19.787,40.619 20.182,40.619 L28.753,40.619 C29.147,40.619 29.467,40.938 29.467,41.332 L29.467,42.756 C29.467,43.149 29.147,43.468 28.753,43.468 ZM15.181,34.211 C15.181,33.817 15.501,33.499 15.896,33.499 L27.324,33.499 C27.719,33.499 28.038,33.817 28.038,34.211 L28.038,35.635 C28.038,36.029 27.719,36.347 27.324,36.347 L15.896,36.347 C15.501,36.347 15.181,36.029 15.181,35.635 L15.181,34.211 ZM26.610,27.090 L26.610,28.514 C26.610,28.907 26.290,29.226 25.896,29.226 L11.610,29.226 C11.216,29.226 10.896,28.907 10.896,28.514 L10.896,27.090 C10.896,26.697 11.216,26.378 11.610,26.378 L25.896,26.378 C26.290,26.378 26.610,26.697 26.610,27.090 ZM58.346,46.316 L36.610,46.316 C35.821,46.316 35.181,45.679 35.181,44.892 L35.181,28.514 L50.895,37.059 L60.690,31.733 C60.814,32.781 60.895,33.842 60.895,34.923 C60.895,38.999 59.965,42.850 58.346,46.316 ZM60.093,28.497 L50.895,33.499 L35.181,24.954 C35.181,24.168 35.821,23.530 36.610,23.530 L58.346,23.530 C59.084,25.110 59.670,26.769 60.093,28.497 Z"/>
</svg>