<svg xmlns="http://www.w3.org/2000/svg" viewBox="0 0 340 100">
  <path fill-rule="evenodd" fill-opacity=".6" fill="#FFF" d="M327.828 42.975c-.247.86-.37 1.548-.37 2.064 0 1.051.455 1.576 1.366 1.576.778 0 1.509-.453 2.191-1.361.684-.908 1.404-2.451 2.163-4.629l.769-2.179h1.11l-1.452 4.3c-1.404 4.032-3.738 6.048-7.001 6.048-2.675 0-4.012-1.27-4.012-3.812 0-1.127.265-2.599.796-4.415l9.506-31.761c.189-.707.284-1.251.284-1.634 0-.783-.303-1.351-.91-1.706-.608-.353-1.623-.53-3.045-.53l.398-1.232c2.068-.02 3.923-.23 5.564-.631a23.119 23.119 0 0 0 4.824-1.777l-12.181 41.679zm-22.676-7.969c-.437 1.949-.655 3.841-.655 5.676 0 3.765 1.338 5.647 4.013 5.647 3.32 0 6.318-1.959 8.993-5.877l.939.459a18.213 18.213 0 0 1-3.017 3.856 15.722 15.722 0 0 1-4.083 2.909c-1.509.746-3.051 1.118-4.625 1.118-2.41 0-4.293-.712-5.649-2.135-1.357-1.424-2.035-3.473-2.035-6.149 0-2.962.863-6.311 2.59-10.047 1.726-3.736 4.064-6.918 7.015-9.546 2.95-2.627 6.152-3.941 9.605-3.941 1.252 0 2.286.334 3.102 1.003.815.669 1.224 1.624 1.224 2.866 0 3.173-1.755 5.934-5.265 8.285-3.511 2.35-7.561 4.309-12.152 5.876zm12.522-16.382c-.152-.353-.389-.53-.712-.53-1.252 0-2.646.731-4.183 2.193-1.537 1.462-2.974 3.411-4.312 5.847a33.18 33.18 0 0 0-3.059 7.754c3.832-1.357 6.479-2.618 7.94-3.783a11.79 11.79 0 0 0 3.358-4.114c.797-1.615 1.195-3.368 1.195-5.26 0-1.051-.076-1.753-.227-2.107zM294.727 36.64c-1.565 3.593-3.657 6.517-6.275 8.772-2.619 2.255-5.645 3.382-9.079 3.382-2.296 0-3.985-.636-5.066-1.906-1.081-1.271-1.622-2.853-1.622-4.744l.028-.631c.228-3.229 1.561-6.817 3.999-10.763 2.438-3.947 5.611-7.802 9.52-11.567-.703.268-1.656.774-2.861 1.519-1.205.746-2.158 1.3-2.86 1.662-.702.364-1.356.545-1.964.545-.341 0-.654-.066-.939-.2-.284-.134-.707-.382-1.266-.746-.56-.362-1.049-.544-1.466-.544-.607 0-1.114.262-1.522.788-.408.526-.849 1.476-1.324 2.852l-.654 2.179h-1.11l1.281-4.272c1.081-3.993 2.912-5.99 5.492-5.99.74 0 1.447.253 2.12.759.674.507 1.215.889 1.623 1.147.407.258.925.387 1.551.387 1.935 0 3.566-.612 4.895-1.834l.598-1.119 1.223.602c-3.15 3.918-5.602 7.812-7.357 11.682-1.755 3.869-2.803 7.84-3.145 11.91-.038.65-.056 1.108-.056 1.376 0 3.306.853 4.959 2.561 4.959 2.846 0 5.407-1.194 7.684-3.583 2.277-2.389 4.079-5.251 5.407-8.586 1.328-3.334 2.059-6.32 2.192-8.957-1.291-.65-2.353-1.515-3.188-2.594-.835-1.08-1.195-2.327-1.081-3.741.057-.841.341-1.463.854-1.864a2.702 2.702 0 0 1 1.707-.602c1.1 0 1.926.53 2.476 1.591s.826 2.509.826 4.343c0 .631-.048 1.404-.143 2.322-.474 4.052-1.494 7.874-3.059 11.466zm-35.014 8.456c0 .975.436 1.462 1.309 1.462 1.708 0 3.197-1.996 4.469-5.991l.711-2.178h1.11l-1.452 4.299c-.796 2.179-1.793 3.741-2.988 4.687-1.195.946-2.438 1.419-3.728 1.419-.721 0-1.362-.139-1.921-.415-.56-.278-.992-.655-1.295-1.133-.323-.573-.484-1.261-.484-2.063 0-.574.066-1.171.199-1.792s.275-1.214.427-1.778c.152-.563.246-.931.285-1.103l1.053-4.271c-1.86 4.395-3.752 7.587-5.678 9.574-1.926 1.988-3.941 2.981-6.047 2.981-1.784 0-3.145-.645-4.084-1.935-.94-1.29-1.409-3.014-1.409-5.174 0-3.172.839-6.717 2.518-10.635 1.68-3.917 3.852-7.242 6.518-9.975 2.665-2.732 5.393-4.099 8.182-4.099 1.025 0 1.873.382 2.547 1.146.673.765 1.067 1.845 1.181 3.239l.911-3.583c2.163-.057 3.956-.325 5.378-.802l-7.285 25.941c-.285 1.033-.427 1.759-.427 2.179zm.712-21.9c0-1.567-.281-2.809-.84-3.727-.56-.917-1.352-1.375-2.376-1.375-1.651 0-3.411 1.295-5.28 3.884-1.869 2.589-3.434 5.795-4.695 9.617-1.262 3.822-1.893 7.414-1.893 10.778 0 1.624.171 2.786.512 3.483.342.698.844 1.046 1.509 1.046 1.081 0 2.376-.836 3.884-2.508 1.509-1.672 2.989-3.903 4.44-6.693a50.932 50.932 0 0 0 3.6-8.944l1.081-4.271c.039-.611.058-1.041.058-1.29zm-18.55.774c-.626.382-1.3.574-2.021.574-.683 0-1.238-.187-1.665-.56-.427-.372-.64-.892-.64-1.562 0-1.758.872-3.01 2.618-3.755-.152-.152-.37-.229-.655-.229-1.385 0-2.864 1.031-4.439 3.095-1.575 2.064-3.159 4.95-4.753 8.657-1.594 3.708-3.112 7.998-4.553 12.872l-1.224 4.901h-5.066l6.973-25.196c.284-.976.426-1.74.426-2.294 0-.898-.408-1.347-1.223-1.347-.873 0-1.665.463-2.377 1.39-.711.927-1.437 2.461-2.177 4.601l-.768 2.178h-1.11l1.48-4.271c1.366-4.032 3.709-6.048 7.029-6.048 2.239 0 3.359 1.137 3.359 3.411 0 .631-.067 1.29-.2 1.977a66.967 66.967 0 0 1-.626 2.81l-1.878 7.453c1.423-3.841 2.765-6.899 4.027-9.173 1.261-2.274 2.542-3.922 3.842-4.945 1.299-1.022 2.718-1.533 4.255-1.533 1.062 0 1.901.311 2.518.932.617.62.925 1.418.925 2.393 0 .764-.19 1.472-.569 2.121a4.354 4.354 0 0 1-1.508 1.548zM231.009 7.058c-2.068 1.28-5.142 1.92-9.221 1.92-1.727 0-3.719-.133-5.977-.402l-8.594 32.565c-.342 1.222-.513 2.217-.513 2.981 0 .669.161 1.189.484 1.562.323.372.83.64 1.523.803.692.162 1.655.262 2.888.301l-.227 1.175c-2.049-.114-4.952-.172-8.709-.172-3.795 0-6.631.058-8.509.172l.256-1.175c1.651-.057 2.926-.258 3.828-.602.901-.344 1.608-.898 2.12-1.663.512-.764.996-1.892 1.451-3.382l8.794-33.252c-3.149-.44-5.654-.66-7.513-.66-3.377 0-5.559.335-6.546 1.003.304.402.555.923.754 1.563.2.641.299 1.247.299 1.82 0 .899-.246 1.692-.74 2.379-.493.688-1.214 1.032-2.163 1.032-.835 0-1.47-.262-1.906-.788-.437-.526-.655-1.237-.655-2.135 0-2.045 1.025-3.574 3.074-4.587 1.821-.898 4.43-1.347 7.826-1.347 1.537 0 3.017.067 4.44.201 1.423.133 3.676.406 6.759.816 3.083.411 5.744.617 7.983.617 1.726 0 3.173-.095 4.34-.287 1.167-.191 2.215-.526 3.145-1.003-.949-.975-1.423-2.074-1.423-3.297 0-.879.242-1.634.726-2.264.483-.631 1.19-.946 2.12-.946.853 0 1.503.268 1.949.802.446.536.669 1.205.669 2.007 0 .86-.252 1.654-.754 2.379-.503.727-1.163 1.347-1.978 1.864zM163.97 45.039c0 1.051.455 1.576 1.365 1.576.778 0 1.509-.453 2.192-1.361.683-.908 1.404-2.451 2.163-4.629l.768-2.179h1.11l-1.451 4.3c-1.404 4.032-3.738 6.048-7.001 6.048-2.675 0-4.013-1.27-4.013-3.812 0-1.127.265-2.599.797-4.415l9.505-31.761c.19-.707.285-1.251.285-1.634 0-.783-.304-1.351-.911-1.706-.607-.353-1.622-.53-3.045-.53l.398-1.232c2.068-.02 3.923-.23 5.564-.631a23.119 23.119 0 0 0 4.824-1.777l-12.181 41.679c-.246.86-.369 1.548-.369 2.064zm-13.371 1.576c.854 0 1.637-.462 2.348-1.39.712-.926 1.437-2.46 2.177-4.6l.769-2.179h1.11l-1.452 4.3c-1.404 4.032-3.757 6.048-7.058 6.048a3.85 3.85 0 0 1-1.778-.415 2.721 2.721 0 0 1-1.21-1.19c-.228-.478-.342-1.08-.342-1.806 0-1.032.275-2.637.826-4.816l1.85-7.367c-1.556 3.784-3.06 6.818-4.511 9.101-1.451 2.284-2.913 3.938-4.383 4.959-1.47 1.023-3.05 1.534-4.738 1.534-3.283 0-4.924-1.509-4.924-4.529 0-1.223.285-2.675.854-4.357l5.635-17.141c.303-.956.455-1.692.455-2.208 0-.956-.455-1.433-1.366-1.433-.797 0-1.556.444-2.277 1.333-.721.888-1.461 2.441-2.22 4.658l-.768 2.178h-1.11l1.48-4.271c1.366-4.032 3.709-6.048 7.03-6.048 2.732 0 4.098 1.213 4.098 3.64 0 1.071-.313 2.59-.939 4.558l-5.55 16.798c-.38 1.146-.569 2.121-.569 2.924 0 1.338.616 2.006 1.85 2.006 1.48 0 3.125-1.089 4.937-3.268 1.812-2.178 3.595-5.217 5.351-9.115 1.754-3.899 3.296-8.313 4.625-13.244l.882-3.497c2.22-.057 3.993-.325 5.322-.802l-7.229 25.999c-.285.994-.427 1.759-.427 2.294 0 .898.417 1.346 1.252 1.346zM135.934 9.68a3.532 3.532 0 0 1-1.978.588c-.74 0-1.319-.172-1.736-.516-.417-.344-.617-.831-.597-1.462 0-.936.303-1.753.91-2.451.607-.697 1.413-1.199 2.419-1.505 0-.362-.261-.688-.782-.974-.522-.287-1.153-.43-1.893-.43-1.138 0-2.267.506-3.387 1.519-.796.764-1.48 1.974-2.049 3.626a69.987 69.987 0 0 0-1.608 5.432 743.441 743.441 0 0 0-1.067 4.214l-.028.057h6.915l-.37 1.175h-6.858L113.38 58.167c-2.049.058-3.795.334-5.237.832l10.644-40.046h-5.293l.37-1.175h5.208l.028-.057c.835-3.191 1.717-5.795 2.647-7.811.929-2.016 2.03-3.655 3.301-4.916.892-.918 1.983-1.639 3.273-2.165a10.55 10.55 0 0 1 4.013-.788c1.726 0 3.078.392 4.055 1.175.977.784 1.466 1.787 1.466 3.01 0 .669-.171 1.314-.512 1.935a4.215 4.215 0 0 1-1.409 1.519zm-26.917 14.935c-.408.335-.915.502-1.523.502-.664 0-1.219-.229-1.664-.688-.446-.459-.669-1.051-.669-1.778 0-1.261.55-2.57 1.65-3.927-.778-.458-1.755-.688-2.931-.688-1.48 0-2.694.498-3.643 1.491-.949.994-1.423 2.351-1.423 4.07 0 1.032.171 1.917.513 2.652.341.736.834 1.567 1.48 2.494.644.927 1.147 1.658 1.508 2.193 1.157 1.815 2.021 3.363 2.59 4.644a9.706 9.706 0 0 1 .853 3.984c0 1.777-.455 3.368-1.366 4.773-.91 1.404-2.13 2.499-3.657 3.282-1.527.783-3.192 1.175-4.994 1.175-2.239 0-4.113-.477-5.621-1.433-1.508-.956-2.263-2.417-2.263-4.386 0-.688.185-1.3.555-1.834.37-.535.944-.803 1.722-.803.873 0 1.518.354 1.936 1.061.416.707.626 1.586.626 2.636 0 .689-.134 1.702-.399 3.039.721.364 1.612.545 2.675.545 1.765 0 3.188-.53 4.269-1.591 1.082-1.061 1.622-2.546 1.622-4.458 0-1.242-.232-2.464-.697-3.669-.465-1.204-1.248-2.57-2.348-4.099-.93-1.28-1.618-2.265-2.063-2.952-.446-.689-.844-1.509-1.195-2.466-.352-.955-.527-1.987-.527-3.096 0-1.623.403-3.066 1.21-4.328.806-1.261 1.901-2.24 3.287-2.938 1.384-.697 2.903-1.046 4.553-1.046 2.011 0 3.7.377 5.066 1.132 1.366.755 2.049 2.078 2.049 3.97 0 .42-.095.865-.284 1.333-.19.468-.489.87-.897 1.204zm-20.741 0c-.409.335-.916.502-1.523.502-.664 0-1.219-.229-1.665-.688-.446-.459-.669-1.051-.669-1.778 0-1.261.55-2.57 1.651-3.927-.778-.458-1.755-.688-2.931-.688-1.48 0-2.695.498-3.643 1.491-.949.994-1.423 2.351-1.423 4.07 0 1.032.171 1.917.512 2.652.342.736.835 1.567 1.48 2.494.645.927 1.148 1.658 1.509 2.193 1.157 1.815 2.02 3.363 2.589 4.644.57 1.28.854 2.608.854 3.984 0 1.777-.455 3.368-1.366 4.773-.911 1.404-2.13 2.499-3.657 3.282-1.527.783-3.192 1.175-4.994 1.175-2.24 0-4.113-.477-5.621-1.433-1.509-.956-2.263-2.417-2.263-4.386 0-.688.185-1.3.555-1.834.37-.535.944-.803 1.722-.803.872 0 1.518.354 1.935 1.061.417.707.626 1.586.626 2.636 0 .689-.133 1.702-.398 3.039.721.364 1.612.545 2.675.545 1.765 0 3.187-.53 4.269-1.591 1.082-1.061 1.622-2.546 1.622-4.458 0-1.242-.232-2.464-.697-3.669-.465-1.204-1.248-2.57-2.348-4.099-.93-1.28-1.618-2.265-2.063-2.952-.446-.689-.845-1.509-1.196-2.466-.351-.955-.526-1.987-.526-3.096 0-1.623.403-3.066 1.209-4.328.807-1.261 1.902-2.24 3.287-2.938 1.385-.697 2.903-1.046 4.554-1.046 2.011 0 3.7.377 5.066 1.132 1.366.755 2.049 2.078 2.049 3.97 0 .42-.095.865-.285 1.333-.19.468-.488.87-.896 1.204zM67.947 10.239c-.683.421-1.394.631-2.134.631-.854 0-1.556-.287-2.106-.86-.551-.573-.826-1.29-.826-2.15 0-.764.209-1.495.626-2.193a4.93 4.93 0 0 1 1.637-1.677c.673-.42 1.37-.63 2.092-.63.872 0 1.584.292 2.134.874.55.583.825 1.314.825 2.193 0 .764-.204 1.486-.611 2.164a4.842 4.842 0 0 1-1.637 1.648zm-1.508 10.406c0 1.146-.323 2.656-.968 4.529l-6.233 17.801c-.303.841-.455 1.558-.455 2.15 0 .994.465 1.49 1.395 1.49.797 0 1.546-.444 2.248-1.333.702-.888 1.47-2.44 2.305-4.657l.797-2.179h1.11l-1.508 4.3c-.76 2.121-1.775 3.659-3.046 4.615-1.271.956-2.646 1.433-4.126 1.433-2.714 0-4.07-1.194-4.07-3.583 0-1.204.341-2.752 1.025-4.644l6.261-17.8c.284-.861.427-1.577.427-2.151 0-.994-.418-1.49-1.253-1.49-.892 0-1.688.473-2.39 1.418-.702.947-1.442 2.471-2.22 4.573l-.825 2.178h-1.082l1.509-4.271c.796-2.236 1.84-3.802 3.13-4.701 1.29-.898 2.656-1.347 4.098-1.347 2.58 0 3.871 1.223 3.871 3.669zM42.852 45.039c0 1.051.455 1.576 1.365 1.576.778 0 1.509-.453 2.192-1.361.683-.908 1.404-2.451 2.163-4.629l.768-2.179h1.11l-1.451 4.3c-1.405 4.032-3.738 6.048-7.001 6.048-2.676 0-4.013-1.27-4.013-3.812 0-1.127.265-2.599.797-4.415l9.505-31.761c.19-.707.285-1.251.285-1.634 0-.783-.304-1.351-.911-1.706-.607-.353-1.622-.53-3.045-.53l.398-1.232c2.068-.02 3.923-.23 5.564-.631a23.119 23.119 0 0 0 4.824-1.777L43.221 42.975c-.246.86-.369 1.548-.369 2.064zM30.847 23.311a25.514 25.514 0 0 1-5.891 2.695c6.375 1.05 9.563 4.242 9.563 9.574 0 2.656-.836 4.92-2.505 6.793-1.67 1.873-3.833 3.272-6.489 4.2-2.656.927-5.445 1.39-8.367 1.39-.93 0-2.476-.029-4.639-.086a207.418 207.418 0 0 0-5.407-.086c-3.093 0-5.464.058-7.115.172l.256-1.175c1.405-.057 2.452-.211 3.145-.459.692-.248 1.247-.707 1.665-1.376.417-.669.815-1.739 1.195-3.21l7.684-29.124c.323-1.3.484-2.236.484-2.81 0-.783-.284-1.347-.854-1.691-.569-.344-1.593-.525-3.073-.545l.284-1.175c1.594.115 3.909.172 6.944.172.873 0 2.21-.019 4.013-.057 1.802-.038 3.206-.058 4.212-.058 3.605 0 6.332.669 8.182 2.007 1.85 1.338 2.775 3.173 2.775 5.504 0 1.911-.56 3.664-1.679 5.259-1.12 1.597-2.581 2.958-4.383 4.086zM11.666 41.743c-.361 1.395-.541 2.35-.541 2.866 0 .727.256 1.243.768 1.548.513.306 1.423.458 2.732.458 4.952 0 8.533-1.003 10.744-3.009 2.21-2.006 3.315-4.978 3.315-8.915 0-5.198-2.779-7.797-8.338-7.797h-4.781l-3.899 14.849zM29.638 9.236c-.996-1.108-2.595-1.663-4.796-1.663-1.176 0-2.092.115-2.746.344a3.002 3.002 0 0 0-1.551 1.204c-.38.573-.721 1.443-1.025 2.609l-3.699 14.161h3.842c2.257 0 4.259-.531 6.005-1.592 1.745-1.06 3.092-2.469 4.041-4.227a11.776 11.776 0 0 0 1.423-5.676c0-2.332-.498-4.051-1.494-5.16z"/>
</svg>
