<svg xmlns="http://www.w3.org/2000/svg" viewBox="0 0 48 41">
  <defs>
    <linearGradient id="a" x1="0%" x2="5.234%" y1="99.863%" y2="0%">
      <stop offset="0%" stop-color="#FF7955" stop-opacity=".75"/>
      <stop offset="26%" stop-color="#FE6161" stop-opacity=".75"/>
      <stop offset="94%" stop-color="#D23078" stop-opacity=".75"/>
    </linearGradient>
  </defs>
  <path fill="url(#a)" d="M39.691 35.01H8.321c-2.13 0-2.897-2.345-1.836-4.94l2.663-6.51c.686-1.678 2.405-2.929 3.894-2.929h2.966s4.229 7.17 7.722 7.19h.056c.066.007.131.02.2.02.061 0 .119-.012.179-.018 2.43.014.665.002.189-.002.57-.017 3.445-.459 7.612-7.19h3.004c1.489 0 3.208 1.251 3.894 2.929l2.663 6.51c1.061 2.595.294 4.94-1.836 4.94zm-8.423-19.892a16.948 16.948 0 0 1-6.635 9.965 1.285 1.285 0 0 1-.637.168c-.29 0-.557-.095-.771-.255a16.954 16.954 0 0 1-6.537-9.968l.005-.002a7.482 7.482 0 0 1-.17-1.589C16.523 9.33 19.865 6 23.988 6c4.124 0 7.466 3.33 7.466 7.437 0 .578-.066 1.14-.192 1.68l.006.001zm-7.28-5.089a3.415 3.415 0 0 0-3.42 3.408 3.414 3.414 0 0 0 3.42 3.407 3.413 3.413 0 0 0 3.421-3.407 3.415 3.415 0 0 0-3.421-3.408z"/>
</svg>
