<svg xmlns="http://www.w3.org/2000/svg" viewBox="0 0 149.85 199.8"><defs><style>.cls-1{fill:#797c7c;}</style></defs><title>Asset 4</title><g id="Layer_2" data-name="Layer 2"><g id="Layer_1-2" data-name="Layer 1"><path class="cls-1" d="M146.2,41.12,108.73,3.66A12.5,12.5,0,0,0,99.9,0H12.49A12.49,12.49,0,0,0,0,12.49V187.32A12.49,12.49,0,0,0,12.49,199.8H137.37a12.48,12.48,0,0,0,12.48-12.48V50A12.49,12.49,0,0,0,146.2,41.12ZM99.9,12.49,137.37,50H99.9Zm37.47,174.83H12.49V12.49H93.66V50A6.24,6.24,0,0,0,99.9,56.2h37.47Zm-31.22-68.69a6.25,6.25,0,0,1-6.25,6.25H81.17v18.73a6.25,6.25,0,0,1-12.49,0V124.88H50a6.25,6.25,0,0,1,0-12.49H68.68V93.66a6.25,6.25,0,1,1,12.49,0v18.73H99.9A6.25,6.25,0,0,1,106.15,118.63Z"/></g></g></svg>