<svg 
 xmlns="http://www.w3.org/2000/svg"
 xmlns:xlink="http://www.w3.org/1999/xlink"
 width="18px" height="18px">
<path fill-rule="evenodd"  fill-opacity="0.502" fill="rgb(255, 255, 255)"
 d="M16.583,15.167 L11.166,15.167 C11.166,16.363 10.196,17.333 8.999,17.333 C7.803,17.333 6.833,16.363 6.833,15.167 L1.416,15.167 C0.817,15.167 0.332,14.681 0.332,14.083 C0.332,13.909 0.373,13.744 0.447,13.599 L2.499,9.494 L2.499,6.499 C2.499,2.909 5.409,-0.001 8.999,-0.001 C12.590,-0.001 15.500,2.909 15.500,6.499 L15.500,9.494 L17.553,13.599 C17.625,13.744 17.667,13.909 17.667,14.083 C17.667,14.681 17.182,15.167 16.583,15.167 ZM13.494,10.272 L13.489,10.272 L13.489,6.740 L13.465,6.740 C13.474,6.634 13.489,6.530 13.489,6.422 C13.489,3.939 11.479,1.927 9.000,1.927 C6.520,1.927 4.510,3.939 4.510,6.422 C4.510,6.530 4.525,6.634 4.535,6.740 L4.510,6.740 L4.510,10.272 L4.506,10.272 L2.901,13.160 L15.099,13.160 L13.494,10.272 Z"/>
</svg>