<svg 
 xmlns="http://www.w3.org/2000/svg"
 xmlns:xlink="http://www.w3.org/1999/xlink"
 width="30px" height="28px">
<path fill-rule="evenodd"  fill-opacity="0.502" fill="rgb(255, 255, 255)"
 d="M30.000,26.229 C30.000,26.839 29.496,27.333 28.875,27.333 C28.512,27.333 28.204,27.154 27.998,26.892 L24.483,23.740 L14.198,23.740 C12.357,23.740 10.865,22.247 10.865,20.406 L10.865,16.042 L13.417,16.042 L13.417,20.042 C13.417,20.778 14.014,21.375 14.750,21.375 L25.653,21.375 L25.499,21.527 L27.749,23.739 L27.749,20.149 C27.752,20.112 27.771,20.080 27.771,20.042 L27.771,14.864 C27.771,14.128 27.174,13.531 26.438,13.531 L22.344,13.531 L22.344,11.021 L26.667,11.021 C28.508,11.021 30.000,12.513 30.000,14.354 L30.000,20.406 C30.000,20.606 29.975,20.799 29.941,20.988 L30.000,20.974 L30.000,26.228 L30.000,26.228 C30.000,26.228 30.000,26.229 30.000,26.229 ZM16.469,13.396 L6.174,13.396 L2.661,16.546 C2.455,16.803 2.150,16.979 1.792,16.979 C1.172,16.979 0.671,16.485 0.668,15.875 L0.666,15.875 L0.666,10.621 L0.724,10.635 C0.692,10.448 0.667,10.259 0.667,10.063 L0.667,4.000 C0.667,2.159 2.159,0.666 4.000,0.666 L16.469,0.666 C18.310,0.666 19.802,2.159 19.802,4.000 L19.802,10.063 C19.802,11.903 18.310,13.396 16.469,13.396 ZM17.250,4.510 C17.250,3.774 16.653,3.177 15.917,3.177 L4.229,3.177 C3.493,3.177 2.896,3.774 2.896,4.510 L2.896,9.688 C2.896,9.725 2.914,9.756 2.917,9.793 L2.917,13.386 L5.168,11.174 L5.012,11.021 L15.917,11.021 C16.653,11.021 17.250,10.424 17.250,9.688 L17.250,4.510 Z"/>
</svg>