<svg 
 xmlns="http://www.w3.org/2000/svg"
 xmlns:xlink="http://www.w3.org/1999/xlink"
 width="15px" height="13px" viewBox="0 0 15 13">
<path fill-rule="evenodd"  fill="rgb(170, 170, 170)"
 d="M13.000,9.969 L4.602,9.969 L2.110,12.445 C1.994,12.767 1.692,13.000 1.330,13.000 L1.170,13.000 C0.708,13.000 0.333,12.625 0.333,12.164 L0.333,12.093 L0.333,12.014 L0.333,8.635 L0.333,8.163 L0.333,1.333 C0.333,0.597 0.930,-0.000 1.667,-0.000 L13.000,-0.000 C13.736,-0.000 14.333,0.597 14.333,1.333 L14.333,8.635 C14.333,9.372 13.736,9.969 13.000,9.969 ZM12.507,1.814 L2.160,1.814 L2.160,9.977 L3.681,8.163 L3.986,8.163 L12.507,8.163 L12.507,1.814 Z"/>
</svg>