<svg xmlns="http://www.w3.org/2000/svg" viewBox="0 0 31 30"><path fill-rule="evenodd" fill-opacity=".502" fill="#FFF" d="M15.667 30c-8.285 0-15-6.716-15-15 0-8.284 6.715-15 15-15 8.284 0 15 6.716 15 15 0 8.284-6.716 15-15 15zm0-27.5c-6.904 0-12.5 5.596-12.5 12.5s5.596 12.5 12.5 12.5c6.903 0 12.5-5.596 12.5-12.5S22.57 2.5 15.667 2.5zm2.423 14.07a.454.454 0 0 1-.324.297c-.025.055-.022.118-.067.163-.045.045-.109.043-.163.068a.46.46 0 0 1-.298.324l-5.653 2.055c-.28.101-.489-.114-.391-.391.109-.307 1.924-5.308 2.06-5.665a.475.475 0 0 1 .319-.286c.025-.055.022-.118.068-.163.044-.045.108-.043.162-.068a.481.481 0 0 1 .286-.319c.357-.136 5.358-1.95 5.666-2.059.276-.099.492.111.391.39-.154.426-1.964 5.405-2.056 5.654z"/></svg>