<svg 
 xmlns="http://www.w3.org/2000/svg"
 xmlns:xlink="http://www.w3.org/1999/xlink"
viewBox="0 0 15 13">
<path fill-rule="evenodd"  fill="rgb(170, 170, 170)"
 d="M14.024,5.595 L14.091,5.614 L7.477,13.000 L7.189,13.000 L0.575,5.614 L0.614,5.561 C0.228,4.988 -0.000,4.296 -0.000,3.547 C-0.000,1.588 1.546,-0.000 3.453,-0.000 C4.173,-0.000 4.841,0.227 5.395,0.615 L5.464,0.591 L7.189,2.364 L7.477,2.364 L9.203,0.591 L9.277,0.610 C9.830,0.225 10.496,-0.000 11.214,-0.000 C13.121,-0.000 14.667,1.588 14.667,3.547 C14.667,4.312 14.425,5.016 14.024,5.595 ZM11.214,1.771 C11.124,1.771 11.047,1.810 10.961,1.823 L10.928,1.773 L10.840,1.848 C10.282,1.979 9.823,2.358 9.617,2.896 L7.477,4.727 L7.189,4.727 L4.819,2.513 C4.681,2.321 4.515,2.164 4.314,2.042 L4.026,1.773 L3.950,1.874 C3.790,1.823 3.629,1.771 3.453,1.771 C2.501,1.771 1.729,2.564 1.729,3.542 C1.729,4.143 2.039,4.648 2.485,4.968 L7.477,10.636 L12.240,4.927 C12.653,4.604 12.937,4.117 12.937,3.542 C12.937,2.564 12.166,1.771 11.214,1.771 Z"/>
</svg>