<svg 
 xmlns="http://www.w3.org/2000/svg"
 xmlns:xlink="http://www.w3.org/1999/xlink"
viewBox="0 0 20 20">
<path fill-rule="evenodd"  fill-opacity="0.502" fill="rgb(255, 255, 255)"
 d="M18.333,7.667 L1.000,7.667 C0.448,7.667 -0.000,7.219 -0.000,6.666 C-0.000,6.114 0.448,5.667 1.000,5.667 L18.333,5.667 C18.886,5.667 19.333,6.114 19.333,6.666 C19.333,7.219 18.886,7.667 18.333,7.667 ZM15.000,2.000 L1.000,2.000 C0.448,2.000 -0.000,1.552 -0.000,1.000 C-0.000,0.448 0.448,0.000 1.000,0.000 L15.000,0.000 C15.552,0.000 16.000,0.448 16.000,1.000 C16.000,1.552 15.552,2.000 15.000,2.000 ZM1.000,11.666 L10.333,11.666 C10.886,11.666 11.333,12.114 11.333,12.667 C11.333,13.219 10.886,13.667 10.333,13.667 L1.000,13.667 C0.448,13.667 -0.000,13.219 -0.000,12.667 C-0.000,12.114 0.448,11.666 1.000,11.666 Z"/>
</svg>