<svg 
 xmlns="http://www.w3.org/2000/svg"
 xmlns:xlink="http://www.w3.org/1999/xlink"
 viewBox="0 0 4 16">
<path fill-rule="evenodd"  fill="rgb(170, 170, 170)"
 d="M2.333,16.000 L2.000,16.000 C1.264,16.000 0.667,15.403 0.667,14.667 L0.667,14.333 C0.667,13.597 1.264,13.000 2.000,13.000 L2.333,13.000 C3.070,13.000 3.667,13.597 3.667,14.333 L3.667,14.667 C3.667,15.403 3.070,16.000 2.333,16.000 ZM2.333,9.667 L2.000,9.667 C1.264,9.667 0.667,9.070 0.667,8.333 L0.667,8.000 C0.667,7.264 1.264,6.666 2.000,6.666 L2.333,6.666 C3.070,6.666 3.667,7.264 3.667,8.000 L3.667,8.333 C3.667,9.070 3.070,9.667 2.333,9.667 ZM2.333,3.333 L2.000,3.333 C1.264,3.333 0.667,2.736 0.667,2.000 L0.667,1.666 C0.667,0.930 1.264,0.334 2.000,0.334 L2.333,0.334 C3.070,0.334 3.667,0.930 3.667,1.666 L3.667,2.000 C3.667,2.736 3.070,3.333 2.333,3.333 Z"/>
</svg>