<svg 
 xmlns="http://www.w3.org/2000/svg"
 xmlns:xlink="http://www.w3.org/1999/xlink"
 width="31px" height="30px">
<path fill-rule="evenodd"  fill-opacity="0.502" fill="rgb(255, 255, 255)"
 d="M15.667,30.000 C7.382,30.000 0.667,23.284 0.667,15.000 C0.667,6.716 7.382,0.000 15.667,0.000 C23.951,0.000 30.667,6.716 30.667,15.000 C30.667,23.284 23.951,30.000 15.667,30.000 ZM15.667,2.500 C8.763,2.500 3.167,8.096 3.167,15.000 C3.167,19.179 5.237,22.849 8.388,25.115 L8.761,21.566 L8.814,21.566 C9.141,18.513 12.065,16.114 15.667,16.114 C19.268,16.114 22.193,18.513 22.519,21.566 L22.577,21.566 L22.949,25.113 C26.098,22.846 28.167,19.177 28.167,15.000 C28.167,8.096 22.570,2.500 15.667,2.500 ZM15.677,13.531 C14.112,13.531 12.844,12.251 12.844,10.672 C12.844,9.093 14.112,7.812 15.677,7.812 C17.242,7.812 18.510,9.093 18.510,10.672 C18.510,12.251 17.242,13.531 15.677,13.531 Z"/>
</svg>