<svg 
 xmlns="http://www.w3.org/2000/svg"
 xmlns:xlink="http://www.w3.org/1999/xlink"
 width="27px" height="24px">
<path fill-rule="evenodd"  fill-opacity="0.502" fill="rgb(255, 255, 255)"
 d="M25.833,3.291 L1.500,3.291 C0.856,3.291 0.333,2.769 0.333,2.125 L0.333,1.833 C0.333,1.189 0.856,0.667 1.500,0.667 L25.833,0.667 C26.478,0.667 27.000,1.189 27.000,1.833 L27.000,2.125 C27.000,2.769 26.478,3.291 25.833,3.291 ZM1.500,9.865 L13.833,9.865 C14.478,9.865 15.000,10.387 15.000,11.031 L15.000,11.323 C15.000,11.967 14.478,12.490 13.833,12.490 L1.500,12.490 C0.856,12.490 0.333,11.967 0.333,11.323 L0.333,11.031 C0.333,10.387 0.856,9.865 1.500,9.865 ZM1.500,19.062 L13.833,19.062 C14.478,19.062 15.000,19.585 15.000,20.229 L15.000,20.521 C15.000,21.165 14.478,21.688 13.833,21.688 L1.500,21.688 C0.856,21.688 0.333,21.165 0.333,20.521 L0.333,20.229 C0.333,19.585 0.856,19.062 1.500,19.062 ZM17.667,10.542 C17.667,9.621 18.413,8.875 19.333,8.875 L24.000,8.875 C24.920,8.875 25.667,9.621 25.667,10.542 L25.667,17.822 L25.667,18.239 L25.667,20.427 L25.667,20.913 L25.667,22.240 L25.663,22.240 C25.663,22.245 25.667,22.249 25.667,22.255 C25.667,22.851 25.319,23.333 24.891,23.333 C24.656,23.333 24.453,23.181 24.310,22.953 C24.262,22.959 24.216,22.973 24.167,22.973 L21.667,20.111 L19.167,22.973 C19.123,22.973 19.082,22.960 19.040,22.955 C18.896,23.182 18.690,23.333 18.453,23.333 C18.019,23.333 17.667,22.851 17.667,22.255 C17.667,22.249 17.670,22.245 17.670,22.240 L17.667,22.240 L17.667,20.914 C17.667,20.914 17.667,20.913 17.667,20.913 L17.667,17.822 C17.667,17.821 17.667,17.820 17.667,17.819 L17.667,10.542 Z"/>
</svg>