<svg 
 xmlns="http://www.w3.org/2000/svg"
 xmlns:xlink="http://www.w3.org/1999/xlink"
 width="18px" height="19px">
<path fill-rule="evenodd"  fill-opacity="0.502" fill="rgb(255, 255, 255)"
 d="M17.536,16.788 L16.121,18.202 L11.325,13.406 C10.192,14.196 8.820,14.666 7.333,14.666 C3.467,14.666 0.333,11.533 0.333,7.667 C0.333,3.801 3.467,0.667 7.333,0.667 C11.199,0.667 14.333,3.801 14.333,7.667 C14.333,9.323 13.734,10.825 12.772,12.024 L17.536,16.788 ZM7.333,2.667 C4.572,2.667 2.333,4.905 2.333,7.667 C2.333,10.428 4.572,12.667 7.333,12.667 C10.095,12.667 12.333,10.428 12.333,7.667 C12.333,4.905 10.095,2.667 7.333,2.667 Z"/>
</svg>