<svg xmlns="http://www.w3.org/2000/svg" width="42" height="30" viewBox="0 0 42 30"><path fill-rule="evenodd" fill="#FFF" d="M41.654 13.194a.93.93 0 0 1-.095.288c-.185.356-.581.595-1.093.788-.507.204-1.585.593-2.499.919-3.431 1.32-7.228 2.68-10.989 3.845-.568.332-1.314.536-2.074.548-.595.01-1.104-.107-1.495-.313a.709.709 0 0 1-.371-.201c-.475-.545-1.296-1.234-1.922-1.932a4.64 4.64 0 0 1-.586-.8.397.397 0 0 1-.312-.145.457.457 0 0 1-.104-.257l-.002-.051.002-.052a.572.572 0 0 1 .349-.475c.01-.011.007-.026.017-.037.841-.843 2.341-.356 3.787.032.566.152 1.175.137 1.71.065.523-.191 1.032-.388 1.549-.583a98.598 98.598 0 0 1-2.695-2.832c-.018.001-.035.01-.053.009-.349-.013-.589-.331-.534-.709.055-.378.383-.666.73-.646.644-.078 1.278-.157 1.902-.236l.067.002a5.496 5.496 0 0 1 .79.098c.478.097 1.057.283 1.478.648.764.713 2.915 1.847 5.439.946a74.574 74.574 0 0 1 2.972-1.044l.029.057a6.49 6.49 0 0 1 .855-.059 5.33 5.33 0 0 1 .573.027c.784.083 1.721.334 2.191.943.112.155.197.301.259.437a1.36 1.36 0 0 1 .132.474c.003.028.004.057.005.085 0 .055-.004.109-.012.161zM21.63 2.771C14.919 2.771 9.479 8.246 9.479 15c0 2.502.75 4.826 2.031 6.763 3.95-.668 7.774-2.256 7.774-2.256l.021.001c.213-.255.524-.423.881-.406.608.03 1.078.548 1.049 1.16a1.09 1.09 0 0 1-1.016 1.033c-.118.074-.212.141-.366.224-1.302.704-4.104 1.51-6.917 2.016 2.207 2.276 5.284 3.694 8.694 3.694 5.084 0 9.432-3.144 11.245-7.603l2.961-1.412c-1.457 6.552-7.258 11.453-14.206 11.453-4.702 0-8.873-2.253-11.536-5.735-.911.085-1.766.121-2.497.085-3.585-.178-7.374-2.062-7.266-5.201.108-3.138 3.618-6.661 3.618-6.661l.003.001a.983.983 0 0 1 .906-.509.992.992 0 0 1 .948 1.033.965.965 0 0 1-.485.781c-2.596 2.813-2.926 3.778-2.987 5.011-.063 1.252.761 3.384 5.574 3.575.309.012.626.012.947.001A14.676 14.676 0 0 1 7.062 15C7.062 6.9 13.585.333 21.63.333c6.087 0 11.297 3.762 13.475 9.1-.76.093-1.676.36-2.38.595-1.894-4.274-6.145-7.257-11.095-7.257z"/></svg>