<svg 
 xmlns="http://www.w3.org/2000/svg"
 xmlns:xlink="http://www.w3.org/1999/xlink"
viewBox="0 0 29 29">
<path fill-rule="evenodd"  fill="rgb(204, 204, 204)"
 d="M26.583,16.082 L24.833,16.082 C23.866,16.082 23.082,15.300 23.082,14.332 C23.082,13.366 23.866,12.582 24.833,12.582 L26.583,12.582 C27.549,12.582 28.332,13.366 28.332,14.332 C28.332,15.300 27.549,16.082 26.583,16.082 ZM22.995,8.145 C22.311,8.829 21.203,8.829 20.520,8.145 C19.836,7.462 19.836,6.354 20.520,5.670 L21.757,4.433 C22.269,3.920 23.021,3.792 23.653,4.049 C23.864,4.134 24.061,4.262 24.232,4.433 C24.403,4.604 24.531,4.801 24.616,5.012 C24.873,5.644 24.745,6.396 24.232,6.908 L22.995,8.145 ZM14.332,21.332 C10.467,21.332 7.333,18.198 7.333,14.332 C7.333,10.467 10.467,7.332 14.332,7.332 C18.198,7.332 21.332,10.467 21.332,14.332 C21.332,18.198 18.198,21.332 14.332,21.332 ZM14.332,10.832 C12.400,10.832 10.832,12.400 10.832,14.332 C10.832,16.266 12.400,17.833 14.332,17.833 C16.266,17.833 17.832,16.266 17.832,14.332 C17.832,12.400 16.266,10.832 14.332,10.832 ZM14.332,5.583 C13.366,5.583 12.583,4.799 12.583,3.832 L12.583,2.083 C12.583,1.116 13.366,0.333 14.332,0.333 C15.299,0.333 16.082,1.116 16.082,2.083 L16.082,3.832 C16.082,4.799 15.299,5.583 14.332,5.583 ZM5.670,8.145 L4.433,6.908 C3.750,6.225 3.750,5.116 4.433,4.433 C5.117,3.749 6.225,3.749 6.908,4.433 L8.145,5.670 C8.829,6.354 8.829,7.462 8.145,8.145 C7.462,8.829 6.354,8.829 5.670,8.145 ZM5.583,14.332 C5.583,15.300 4.799,16.082 3.833,16.082 L2.083,16.082 C1.116,16.082 0.332,15.300 0.332,14.332 C0.332,13.366 1.116,12.582 2.083,12.582 L3.833,12.582 C4.799,12.582 5.583,13.366 5.583,14.332 ZM5.670,20.519 C6.354,19.836 7.462,19.836 8.145,20.519 C8.829,21.203 8.829,22.311 8.145,22.995 L6.908,24.232 C6.225,24.915 5.117,24.915 4.433,24.232 C3.750,23.548 3.750,22.440 4.433,21.757 L5.670,20.519 ZM14.332,23.082 C15.299,23.082 16.082,23.866 16.082,24.832 L16.082,26.582 C16.082,27.549 15.299,28.333 14.332,28.333 C13.366,28.333 12.583,27.549 12.583,26.582 L12.583,24.832 C12.583,23.866 13.366,23.082 14.332,23.082 ZM22.995,20.519 L24.232,21.757 C24.916,22.440 24.916,23.548 24.232,24.232 C23.549,24.915 22.441,24.915 21.757,24.232 L20.520,22.995 C19.836,22.311 19.836,21.203 20.520,20.519 C21.203,19.836 22.311,19.836 22.995,20.519 Z"/>
</svg>